<?xml version="1.0" encoding="UTF-8" standalone="no"?>
<!-- Created with Inkscape (http://www.inkscape.org/) -->

<svg
   xmlns:dc="http://purl.org/dc/elements/1.1/"
   xmlns:cc="http://creativecommons.org/ns#"
   xmlns:rdf="http://www.w3.org/1999/02/22-rdf-syntax-ns#"
   xmlns:svg="http://www.w3.org/2000/svg"
   xmlns="http://www.w3.org/2000/svg"
   xmlns:sodipodi="http://sodipodi.sourceforge.net/DTD/sodipodi-0.dtd"
   xmlns:inkscape="http://www.inkscape.org/namespaces/inkscape"
   width="352.77777mm"
   height="352.77777mm"
   viewBox="0 0 1250 1250"
   id="svg2"
   version="1.1"
   inkscape:version="0.91 r13725"
   sodipodi:docname="kerronb.svg">
  <defs
     id="defs4">
    <filter
       height="1.073631"
       y="-0.036815535"
       width="1.1378909"
       x="-0.068945453"
       id="filter4241"
       style="color-interpolation-filters:sRGB"
       inkscape:collect="always">
      <feGaussianBlur
         id="feGaussianBlur4243"
         stdDeviation="2.7930719"
         inkscape:collect="always" />
    </filter>
  </defs>
  <sodipodi:namedview
     id="base"
     pagecolor="#ffffff"
     bordercolor="#666666"
     borderopacity="1.0"
     inkscape:pageopacity="0.0"
     inkscape:pageshadow="2"
     inkscape:zoom="0.35"
     inkscape:cx="866.55377"
     inkscape:cy="539.28571"
     inkscape:document-units="px"
     inkscape:current-layer="layer1"
     showgrid="false"
     fit-margin-top="0"
     fit-margin-left="0"
     fit-margin-right="0"
     fit-margin-bottom="0"
     inkscape:window-width="1366"
     inkscape:window-height="712"
     inkscape:window-x="0"
     inkscape:window-y="30"
     inkscape:window-maximized="1" />
  <metadata
     id="metadata7">
    <rdf:RDF>
      <cc:Work
         rdf:about="">
        <dc:format>image/svg+xml</dc:format>
        <dc:type
           rdf:resource="http://purl.org/dc/dcmitype/StillImage" />
        <dc:title></dc:title>
      </cc:Work>
    </rdf:RDF>
  </metadata>
  <g
     inkscape:label="Layer 1"
     inkscape:groupmode="layer"
     id="layer1"
     transform="translate(587.85712,172.6378)">
    <g
       id="g3387"
       transform="matrix(3.3517192,0,0,3.3517192,-587.85712,-35.885282)">
      <g
         transform="translate(-191.92898,-155.93363)"
         id="layer1-3"
         inkscape:label="Layer 1" />
      <g
         transform="translate(-191.92898,-155.93363)"
         style="display:inline;opacity:1"
         inkscape:label="head"
         id="layer3">
        <g
           style="display:inline"
           inkscape:label="head ear"
           id="layer10"
           inkscape:groupmode="layer" />
        <g
           inkscape:label="shadow 1"
           id="layer12"
           inkscape:groupmode="layer" />
        <g
           inkscape:label="hear"
           id="layer13"
           inkscape:groupmode="layer" />
      </g>
      <g
         transform="translate(-191.92898,-155.93363)"
         style="display:inline"
         inkscape:label="shirt"
         id="layer2" />
      <g
         transform="translate(-191.92898,-155.93363)"
         style="display:inline"
         inkscape:label="shirt hand"
         id="layer5" />
      <g
         transform="translate(-191.92898,-155.93363)"
         inkscape:label="shadow"
         id="layer8" />
      <g
         transform="translate(-191.92898,-155.93363)"
         style="display:inline"
         inkscape:label="tie"
         id="layer6" />
      <g
         transform="translate(-191.92898,-155.93363)"
         style="display:inline"
         inkscape:label="neck"
         id="layer7" />
      <g
         transform="translate(-191.92898,-155.93363)"
         style="display:inline"
         inkscape:label="hand"
         id="layer4">
        <g
           id="g4303">
          <path
             style="display:inline;opacity:1;fill:#784421;fill-rule:evenodd;stroke:none;stroke-width:1px;stroke-linecap:butt;stroke-linejoin:miter;stroke-opacity:1"
             d="m 403.96632,294.27428 1.35739,-1.79933 6.31345,-6.31345 6.06092,-7.57615 8.33376,-12.6269 c 0,0 4.38976,-10.39087 5.80837,-13.8896 1.41861,-3.49873 2.02436,-3.82186 2.77792,-7.07107 0.75356,-3.24921 1.05707,-9.16204 1.01016,-12.37437 -0.0469,-3.21233 -0.92108,-4.72168 -0.75762,-6.81853 0.16346,-2.09685 1.23994,-3.85946 1.51523,-5.55584 0.27529,-1.69638 0.21163,-3.07194 0.25254,-4.54568 0.0409,-1.47374 -0.14602,-2.60132 0,-4.29315 0.14602,-1.69183 0.83049,-2.97762 1.01015,-5.80838 0.17966,-2.83076 0.32247,-7.05058 -0.50508,-11.11168 -0.82755,-4.0611 -0.47903,-6.6001 -3.36965,-12.5223 -2.89062,-5.92219 -4.83187,-7.52167 -7.99456,-11.21628 -3.16269,-3.69461 -6.53138,-7.01409 -10.8412,-9.3566 -4.30982,-2.34251 -9.12337,-4.46973 -14.16008,-5.03807 -5.03671,-0.56834 -11.38978,0.0321 -17.42513,1.26269 -6.03535,1.2306 -11.88689,4.0234 -16.29242,6.31345 -4.40553,2.29005 -8.0833,4.88891 -11.10162,8.38235 -3.01832,3.49344 -5.3341,9.17809 -7.45622,13.08339 -2.12212,3.9053 -3.00663,9.30342 -3.2064,12.45622 -0.19977,3.1528 0.26523,9.63189 0.26523,9.63189 0,0 -2.65196,-0.7814 -4.1299,-0.8749 -1.47794,-0.0935 -3.19974,0.29173 -4.29315,1.26269 -1.09341,0.97096 -1.05389,2.62153 -1.69198,3.95181 -0.63809,1.33028 -1.61508,2.27544 -2.14286,4.01786 -0.52778,1.74242 -0.53485,4.50602 -0.625,6.33928 -0.0901,1.83326 0,2.88691 0,4.64286 0,1.75595 -0.25178,3.79245 0,5.89286 0.25178,2.10041 0.61557,4.94655 1.60714,6.60714 0.99157,1.66059 2.04079,2.78833 3.57143,3.21428 1.53064,0.42595 3.22169,-0.0929 4.64286,-0.89285 1.42117,-0.79994 0.9867,1.23616 0.74121,2.50032 0,0 -0.7182,7.26818 -1.70803,11.544 -0.98983,4.27582 -1.73342,7.61512 -1.73342,7.61512 l -0.87119,2.09056 -1.53762,7.6316 35.86042,41.92133 22.72843,5.55584 7.07107,-3.53554 2.1277,-15.32323 -0.625,-6.16072 z"
             id="path3351"
             inkscape:connector-curvature="0"
             sodipodi:nodetypes="ccccczzzzzzzzzzzzzzzzzzczzzzzzzzzzszccccccccc" />
          <path
             style="display:inline;opacity:1;fill:#502d16;fill-rule:evenodd;stroke:none;stroke-width:1px;stroke-linecap:butt;stroke-linejoin:miter;stroke-opacity:1"
             d="m 342.69425,218.98635 3.15673,1.13643 -3.53554,4.67195 1.01016,5.3033 -1.89404,-2.14657 -3.15673,3.03045 -0.12626,-4.67195 2.52538,-6.06092 0.63134,-3.6618 -3.40926,0.12627 -2.27285,7.70241 0.12627,6.43973 2.02031,3.91434 3.40926,0.50507 3.283,-2.0203 0.50507,1.38896 -2.90418,3.28299 -3.91434,-0.50507 -3.91435,-6.06092 0.50508,-8.20749 0.37881,-4.29315 1.51523,-5.3033 1.89403,-3.03045 2.39911,0.50507 1.89404,3.53554 1.6415,3.28299 2.27284,0.37881 -0.37881,1.6415 z"
             id="path4251"
             inkscape:connector-curvature="0" />
          <path
             style="display:inline;opacity:1;fill:#502d16;fill-rule:evenodd;stroke:none;stroke-width:1px;stroke-linecap:butt;stroke-linejoin:miter;stroke-opacity:1"
             d="m 353.64014,278.02637 5.64558,5.94298 11.07142,8.21428 14.28572,6.78572 10.71428,0.17857 5.35715,-3.39286 3.57143,-2.32143 0,4.46429 -1.78572,7.5 -3.92857,6.42857 -6.96429,2.67857 -10.71428,-1.96429 -17.67857,-17.14285 -22.14286,-21.78572 -3.30357,-5.17857 0.80357,-3.83928 0.89286,-0.625 3.39285,4.01785 3.35216,3.50009 3.73205,3.29198 z"
             id="path4261"
             inkscape:connector-curvature="0"
             sodipodi:nodetypes="ccccccccccccccccccccc" />
          <path
             style="display:inline;opacity:1;fill:#1a1a1a;fill-rule:evenodd;stroke:none;stroke-width:1px;stroke-linecap:butt;stroke-linejoin:miter;stroke-opacity:1"
             d="m 432.32143,178.96935 -17.5,-5 -14.64286,-4.46429 -11.25,-4.82143 -6.60714,-2.32143 -10.53571,4.10715 -3.92858,3.39285 0,14.82143 -7.5,5.17857 -7.14285,3.21429 -0.53572,9.28571 -4.28571,7.85715 -1.60714,0.53571 -1.42858,-4.10714 c 0,0 -0.63222,-7.77626 -0.0893,-11.60714 0.36602,-2.58257 2.23214,-7.50001 2.23214,-7.50001 0,0 2.86371,-7.07356 4.91072,-10.26785 1.98406,-3.09607 4.26723,-6.08246 7.05357,-8.48215 3.4808,-2.99777 11.78571,-7.14285 11.78571,-7.14285 0,0 7.59345,-3.3367 11.60715,-4.28571 4.19638,-0.99221 12.85714,-1.42858 12.85714,-1.42858 l 4.63476,0.31394 5.90095,0.93606 8.39286,3.75 6.42857,4.10714 c 0,0 4.77533,5.18714 6.96428,7.94644 1.5245,1.92171 4.28572,5.98214 4.28572,5.98214 z"
             id="path4264"
             inkscape:connector-curvature="0"
             sodipodi:nodetypes="ccccccccccccccacaacacccccac" />
          <path
             style="display:inline;fill:#f2f2f2;fill-rule:evenodd;stroke:none;stroke-width:1px;stroke-linecap:butt;stroke-linejoin:miter;stroke-opacity:1"
             d="m 474.28572,487.3622 -2.14286,-34.64285 -6.78572,-44.28572 2.85715,-13.92857 -1.07143,-3.57143 -7.85714,-21.42857 -6.42858,-13.92857 L 440,341.64792 l -8.21429,-7.85714 -27.53529,-18.08232 -0.94702,-3.97748 2.27285,-4.79822 0.37881,-7.1342 -0.69448,-7.38674 -1.2627,1.8309 -0.44194,8.58629 -1.19955,3.91435 -3.53554,2.65165 -8.08122,4.92449 0.44194,-1.45209 -7.26047,-0.50508 -21.4026,-18.75096 -21.52888,-20.83439 -2.65165,-4.04061 0.44194,-3.72494 0.88388,-1.13642 -0.44194,-1.26269 -2.08344,1.38896 -1.07328,3.28299 -3.15673,5.74524 -9.28078,10.98541 -0.1894,1.32583 -5.24017,1.70463 -6.31345,1.89404 -4.79823,1.13642 -4.54568,1.51523 c 0,0 -33.71384,11.23794 -33.71384,11.74302 0,0.50508 -31.94608,16.54125 -31.94608,16.54125 l -8.58629,5.80838 -4.9245,4.54568 -6.9448,8.83884 -5.93464,9.84898 c 0,0 -6.55138,16.13904 -10.18229,22.31373 -2.13492,3.63062 -8.12673,12.91534 -8.12673,12.91534 l -0.008,102.87538 z"
             id="path3348"
             inkscape:connector-curvature="0"
             sodipodi:nodetypes="ccccccccccccccccccccccccccccccccccccscccccsccc" />
          <path
             style="display:inline;fill:#e6e6e6;fill-rule:evenodd;stroke:none;stroke-width:1px;stroke-linecap:butt;stroke-linejoin:miter;stroke-opacity:1"
             d="m 201.96429,454.32649 30.35714,-22.32143 -5.35714,8.92857 -0.89286,10.17857 0.35714,7.85715 2.5,8.39285 5,9.46429 3.92857,5.89286 5.71429,2.67857 3.92857,1.60714 -46.78571,-0.17857 -3.75,-7.5 -1.07143,-9.46429 3.03571,-10.35714 z"
             id="path3357"
             inkscape:connector-curvature="0" />
          <path
             style="display:inline;fill:#e6e6e6;fill-rule:evenodd;stroke:none;stroke-width:1px;stroke-linecap:butt;stroke-linejoin:miter;stroke-opacity:1"
             d="m 467.14286,391.82649 -2.67857,1.07143 -3.92857,18.03571 -1.96429,-2.5 0,-16.25 -3.03571,-12.85714 -1.07143,-10.89286 -0.35715,-5.17857 -0.71428,-2.5 -3.21429,2.32143 -1.07143,6.60714 2.67858,8.92857 2.14285,7.67857 -4.10714,-1.07142 -4.10714,0.35714 0.17857,5.17857 7.85714,6.78571 2.67857,14.82143 -0.53571,6.60715 -3.92857,-1.07143 -1.78572,5 -1.60714,2.67857 4.46429,3.92857 -0.53572,8.03571 3.39286,-7.85714 2.67857,-12.5 2.85714,-2.14286 0.35715,3.21429 -3.03572,8.57143 -4.64286,19.82143 -4.28571,12.85714 -1.42857,2.32143 -2.5,12.32143 -1.42857,-0.89286 3.39285,-25.35714 -2.85714,-6.60715 -3.21428,-0.53571 -2.67858,5.71429 -2.14285,31.78571 -3.75,8.57143 15,-0.17857 -0.17857,-10.17857 3.21428,-9.10715 2.67857,-2.85714 1.78572,8.39286 -2.67857,7.67857 -1.96429,6.60714 5.53571,-0.17857 3.03572,-20 0,-6.07143 1.60714,-4.28571 3.39286,-14.82143 0.17857,-5.53572 -1.78571,0 -5.35715,22.67858 -1.60714,-0.71429 2.67857,-16.96429 3.92857,-15.71428 2.14286,-6.60714 -0.17857,-3.21429 0.17857,-2.67857 -1.78571,-0.53572 0.71428,-6.07142 2.32143,-10.53572 z"
             id="path3388"
             inkscape:connector-curvature="0" />
          <path
             style="display:inline;fill:#e6e6e6;fill-rule:evenodd;stroke:none;stroke-width:1px;stroke-linecap:butt;stroke-linejoin:miter;stroke-opacity:1"
             d="m 250.77037,415.46102 -3.03046,-18.43528 5.3033,-3.53553 4.79823,11.11167 -1.01016,-11.86929 1.51523,-3.28299 3.03046,0.50507 2.27284,6.06092 1.2627,-6.56599 -4.04061,-8.83884 1.76776,-4.04061 6.56599,-1.51523 2.77792,4.29315 2.02031,-11.36422 -6.06092,-11.11167 0.25254,-4.29315 c 0,0 4.29315,-1.51523 4.79823,-0.50508 0.50507,1.01015 4.04061,8.83884 4.04061,8.83884 l 3.53553,-15.40483 -1.26269,-14.39467 -0.75762,-2.02031 -6.06091,-0.75761 1.26269,-2.27285 3.283,-0.75761 -4.54569,-3.03046 1.51523,-2.0203 4.79822,2.27284 2.02031,8.5863 0.75761,20.45559 -1.76776,13.13198 -1.76777,10.10152 -4.54569,7.57615 -3.78807,5.55584 5.3033,-3.78807 5.55584,-9.84899 6.31345,-1.01015 1.26269,4.54568 -6.06091,6.56599 -6.06092,5.55584 0,3.283 12.37437,-8.08122 5.55584,-2.77792 -0.75761,-15.40483 -1.76777,-14.39467 -3.53553,-10.6066 5.80837,1.01015 0.25254,-5.05076 -6.31345,-0.75762 -0.75762,-5.80838 -2.52538,-4.79822 -2.77792,-11.11168 6.06092,-3.03046 4.54568,4.29315 -6.56599,3.03046 2.27285,6.06092 3.28299,7.82868 5.55584,-4.04061 5.05076,-21.71828 2.27285,-0.50508 -3.53554,22.22336 -2.52538,17.67767 2.02031,15.9099 9.09137,-2.77792 3.03046,-11.36422 4.79822,-5.05076 3.283,10.10153 -6.06092,9.59645 -11.61675,10.6066 -2.52538,5.3033 8.58629,3.03046 -52.78047,32.57742 z"
             id="path3390"
             inkscape:connector-curvature="0" />
          <path
             style="display:inline;fill:#e6e6e6;fill-rule:evenodd;stroke:none;stroke-width:1px;stroke-linecap:butt;stroke-linejoin:miter;stroke-opacity:1"
             d="m 389.66634,487.18186 1.76777,-15.15229 -9.59645,-27.7792 -12.12183,-15.9099 -16.41498,-11.86929 7.07107,17.17259 11.61676,22.72843 8.58629,20.96067 -0.25254,5.80837 4.04061,5.30331 z"
             id="path3392"
             inkscape:connector-curvature="0" />
          <path
             style="display:inline;fill:#e6e6e6;fill-rule:evenodd;stroke:none;stroke-width:1px;stroke-linecap:butt;stroke-linejoin:miter;stroke-opacity:1"
             d="m 280.56987,487.68693 15.40483,-11.86929 4.79822,-11.86929 6.56599,-14.64722 -23.23351,-7.07106 -22.98097,12.37437 -6.81853,22.98097 -1.51523,9.09137 z"
             id="path3394"
             inkscape:connector-curvature="0" />
          <path
             style="display:inline;fill:#e6e6e6;fill-rule:evenodd;stroke:none;stroke-width:1px;stroke-linecap:butt;stroke-linejoin:miter;stroke-opacity:1"
             d="m 292.18662,487.18186 12.37437,-11.36422 11.36422,-13.63706 6.06091,-6.06092 5.80838,-6.06091 13.8896,-1.76777 -1.76777,8.83884 -4.79822,15.9099 -0.50508,9.34391 10.10153,2.27284 8.08122,0 7.82868,-3.03045 -3.283,-19.1929 -3.53553,-9.84899 -1.51523,-7.57614 6.31345,-0.50508 8.5863,19.69797 2.02031,14.14214 1.76776,9.09137 z"
             id="path3396"
             inkscape:connector-curvature="0" />
          <path
             style="display:inline;fill:#e6e6e6;fill-rule:evenodd;stroke:none;stroke-width:1px;stroke-linecap:butt;stroke-linejoin:miter;stroke-opacity:1"
             d="m 192.6866,399.29858 26.26396,-39.90102 15.15229,-23.73859 2.52538,-7.07106 -5.3033,-1.76777 -7.3236,3.53553 -5.80838,11.36422 -10.10153,15.15229 -9.59644,18.43528 -6.566,11.86929 z"
             id="path3398"
             inkscape:connector-curvature="0" />
          <path
             style="display:inline;fill:#e6e6e6;fill-rule:evenodd;stroke:none;stroke-width:1px;stroke-linecap:butt;stroke-linejoin:miter;stroke-opacity:1"
             d="m 257.84144,381.62091 -14.89975,-27.77919 -4.29315,-4.29315 -4.54569,5.80838 -6.31345,3.28299 2.0203,11.11168 7.57615,3.78807 2.77792,-5.3033 5.05076,5.80838 0.50508,9.34391 -4.04061,9.09137 5.55584,1.51523 2.52538,-5.55584 0.25254,-6.06091 6.06091,3.03046 3.78807,0.25253 z"
             id="path3400"
             inkscape:connector-curvature="0" />
          <path
             style="display:inline;fill:#e6e6e6;fill-rule:evenodd;stroke:none;stroke-width:1px;stroke-linecap:butt;stroke-linejoin:miter;stroke-opacity:1"
             d="m 236.12315,328.08283 8.08122,-2.77792 7.82869,-6.31345 5.55584,-0.25254 8.83883,-4.79822 9.59645,-1.76777 6.06091,-3.283 12.12184,-1.26269 7.57614,-0.75761 8.83883,-4.04061 5.05077,-2.52538 7.07106,-3.78807 4.04062,1.51523"
             id="path3402"
             inkscape:connector-curvature="0" />
          <path
             style="opacity:0.77600002;fill:#999999;fill-rule:evenodd;stroke:none;stroke-width:1px;stroke-linecap:butt;stroke-linejoin:miter;stroke-opacity:1;filter:url(#filter4241)"
             d="m 337.64349,306.11201 -0.75762,9.34391 8.5863,14.39468 6.31345,13.38452 3.283,2.0203 6.06092,-6.06091 4.04061,-4.04061 5.05076,-4.04061 4.54568,6.56599 1.51523,-2.52538 1.76777,-2.52538 5.05076,8.58629 0.25254,23.48605 0.75762,24.24366 1.01015,9.59645 3.03046,30.55711 5.3033,44.69925 2.0203,14.14214 38.63834,0.25254 0,-5.05077 -10.85914,-61.36676 -3.78808,-36.36549 -2.27284,-12.62691 -3.53553,-18.94036 -1.26269,-4.04061 1.76776,-5.3033 -7.82868,-14.14214 -8.08122,-9.34391 -2.52538,-6.81853 -19.69797,1.51523 -26.26397,-5.05076 z"
             id="path3407"
             inkscape:connector-curvature="0" />
          <path
             style="display:inline;fill:#0044aa;fill-rule:evenodd;stroke:none;stroke-width:1px;stroke-linecap:butt;stroke-linejoin:miter;stroke-opacity:1"
             d="m 397.32143,487.18363 -12.67857,-112.14286 1.07143,-21.25 -0.35715,-9.10714 0.17858,-4.64286 -7.67858,-8.03571 -0.89285,-4.82143 -6.60715,-4.28571 6.60715,-5.17857 3.75,3.21428 3.39285,-2.5 5.17858,1.60714 3.39285,0 2.67857,-1.96428 5.53572,5.89286 -4.28572,3.75 3.21429,9.28571 1.25,3.39286 0.89286,3.39285 8.21428,5 4.10715,15.89286 4.64285,30.35714 2.85715,30 10.17857,62.14286 z"
             id="path3362"
             inkscape:connector-curvature="0" />
          <path
             style="display:inline;fill:#e6e6e6;fill-rule:evenodd;stroke:none;stroke-width:1px;stroke-linecap:butt;stroke-linejoin:miter;stroke-opacity:1"
             d="m 354.10714,344.68363 5.35715,-10.89286 7.67857,-6.60714 15.89286,-11.78571 6.78571,-0.71429 1.3023,-0.87119 -0.0179,-1.09309 -6.92468,-0.49425 -17.03825,-14.8629 -19.64286,-17.67857 -7.85714,-9.10714 -1.42857,-2.85714 0.71428,-3.39286 -0.17857,-1.78572 -2.85714,3.21429 0,2.85714 -3.75,5.17857 -8.21429,9.82143 -0.53571,5.17857 2.67857,6.96429 6.07143,9.82143 6.60714,8.92857 4.64286,7.67857 3.75,8.39286 z"
             id="path3365"
             inkscape:connector-curvature="0"
             sodipodi:nodetypes="ccccccccccccccccccccccccc" />
          <path
             style="display:inline;fill:#e6e6e6;fill-rule:evenodd;stroke:none;stroke-width:1px;stroke-linecap:butt;stroke-linejoin:miter;stroke-opacity:1"
             d="m 411.76343,347.52827 0.50508,-6.566 -13.63706,-16.03617 -3.40927,-6.56599 -2.65165,-0.50508 -15.40482,1.01016 5.55584,-3.53554 8.83883,-1.45209 6.62913,-4.16688 3.8512,-5.36644 1.89404,-7.70241 0,-2.46225 1.38896,-1.8309 0.31567,3.03046 0.44194,4.86136 -0.44194,6.62912 -1.19956,2.9042 -1.45209,5.6821 2.58852,7.07107 4.79822,10.85914 3.40927,8.20749 -0.25254,3.28299 z"
             id="path3367"
             inkscape:connector-curvature="0"
             sodipodi:nodetypes="ccccccccccccccccccccccc" />
          <path
             style="fill:#784421;fill-rule:evenodd;stroke:none;stroke-width:1px;stroke-linecap:butt;stroke-linejoin:miter;stroke-opacity:1"
             d="m 229.0558,435.01106 20.57815,-18.16108 6.81853,-7.19733 27.14785,-12.62691 11.23794,-5.68211 18.68783,-11.23795 8.83883,-3.78807 6.56599,-4.41941 15.02602,-1.01016 16.03617,-2.0203 11.49049,-2.52538 5.99778,-1.01016 8.20749,-0.1894 10.73287,-1.76777 4.35628,-0.88388 6.37659,-0.44194 c 0,0 4.77249,-0.40622 6.69226,0.75761 1.80186,1.09235 3.0677,3.18565 3.53554,5.24017 0.51477,2.2606 0.32278,4.98467 -1.01016,6.88166 -1.35866,1.9336 -6.25032,3.34613 -6.25032,3.34613 l -15.40482,2.58852 -9.47018,1.45209 -2.20971,0.44194 -3.53553,0.69448 c 0,0 -3.0787,0.13292 -4.04061,0.50511 -2.72067,1.05271 -11.55362,4.86136 -11.55362,4.86136 l -4.73509,1.89404 -1.13643,2.2097 1.01016,1.95718 15.15228,2.52538 4.04061,0.44194 4.79823,-0.18941 6.78421,1.66941 8.75,2.5 11.96429,2.32143 10.38222,1.77979 c 0,0 3.76518,1.69645 5.3033,3.03046 1.26889,1.1005 2.56597,2.38286 3.09359,3.97748 0.60172,1.81858 0.56551,3.95897 -0.12627,5.74523 -0.39323,1.01537 -1.27266,1.81271 -2.14657,2.46225 -1.35312,1.00573 -4.60882,2.08344 -4.60882,2.08344 l -5.68211,-1.26269 -8.46003,-3.03046 -15.46796,-2.77791 -4.73509,0.50507 -4.54569,-0.25254 -3.59866,-1.19956 -7.00794,-0.82078 -13.82646,-2.71479 -3.03046,1.26269 0.25254,1.76777 17.17259,4.29315 2.27285,4.04061 -0.25254,5.55584 -2.93492,5.55491 -3.03572,4.375 -3.83928,0.625 -2.23215,-2.32143 -1.07142,-3.21429 -1.69643,-1.25 -11.96429,-1.60714 -2.58928,0.71429 0.44642,1.69642 5.625,0.89286 4.73215,0.80357 2.32143,2.76786 0.35714,5.98214 -1.51786,2.67857 -3.30357,2.41072 -6.25,2.14286 -5,0.80357 -5.08929,1.60714 -5.08928,1.875 -2.32143,2.14286 -6.69643,-0.0893 -10.08928,1.07143 -18.48215,0.80357 -9.375,-1.69643 -7.05357,0.35715 -2.23214,0.44642 -5.26786,5.44643 -6.96429,8.66072 -8.03571,14.73214 -8.48214,-0.0893 -11.60715,-0.35714 -14.73214,-22.23214 -1.33929,-17.32143 1.87501,-6.78572 z"
             id="path3354"
             inkscape:connector-curvature="0"
             sodipodi:nodetypes="ccccccccccccccccaaacccccscccccccccccaaaaccccccccccccccccccccccccccccccccccccccccccccccccc" />
        </g>
        <g
           style="display:inline"
           inkscape:label="hand 1"
           id="layer9"
           inkscape:groupmode="layer" />
      </g>
    </g>
  </g>
</svg>
