<svg xmlns="http://www.w3.org/2000/svg" width="300" height="300"><defs><filter id="a" width="1.1" height="1.1" x="-.1" y="0" color-interpolation-filters="sRGB"><feGaussianBlur stdDeviation="2.8"/></filter></defs><g><g fill-rule="evenodd"><path fill="#784421" d="M164.2 151l1-1.4 5-4.8 4.7-6 6.3-9.7 4.5-10.6c1-2.8 1.6-3 2.2-5.5.6-2.6.8-7.2.7-9.7 0-2.5-.7-3.7-.5-5.3 0-1.6 1-3 1-4.3.3-1.3.3-2.4.3-3.5V87c0-1.4.7-2.4.8-4.6.2-2.2.3-5.5-.4-8.6-.7-3.2-.4-5.2-2.7-9.7-2.2-4.5-3.7-5.8-6.2-8.6-2.3-3-5-5.5-8.3-7.3-3.3-1.7-7-3.3-11-3.8-3.8-.4-8.8 0-13.4 1-4.7 1-9.2 3-12.7 5-3.4 1.7-6.2 3.7-8.6 6.4-2.3 2.7-4 7-5.7 10-1.7 3-2.4 7.3-2.5 9.8-.2 2.4.2 7.4.2 7.4s-2-.6-3.2-.7c-1.2 0-2.5.4-3.3 1-1 1-.8 2.2-1.3 3.2s-1.3 1.7-1.7 3c-.4 1.4-.4 3.6-.5 5v3.6c0 1.4-.2 3 0 4.6.2 1.6.5 3.8 1.3 5 .7 1.4 1.5 2.2 2.7 2.6 1.2.3 2.5 0 3.6-.7 1-.6.8 1 .6 2 0 0-.6 5.5-1.3 9-1 3.2-1.5 5.8-1.5 5.8l-.6 1.7-1.3 6 27.7 32.4 17.6 4.4 5.5-2.8 1.7-11.8-.5-4.8z"/><path fill="#502d16" d="M116.8 92.7l2.4 1-2.7 3.5.8 4-1.5-1.5-2.5 2.3v-3.6l2-4.7.4-2.8H113l-1.7 6v5l1.7 3 2.6.3 2.5-1.5.5 1-2.2 2.6-3-.4-3-4.7.3-6.3.3-3.4 1-4 1.5-2.4 2 .4 1.4 2.7 1 2.5 2 .3-.4 1.4zM125.2 138.5l4.4 4.6 8.6 6.4 11 5.3h8.4l4-2.5 3-1.8v3.4l-1.5 6-3 4.8-5.3 2-8.3-1.4-13.7-13.3-17.2-17-2.5-4 .6-3 .7-.4 2.6 3 2.5 2.8 3 2.5z"/><path fill="#1a1a1a" d="M186.2 61.7L172.6 58l-11.3-3.6-8.7-3.7-5-1.8-8.3 3-3 2.7v11.5l-5.8 4-5.6 2.5-.5 7.2-3.3 6-1.3.4-1.2-3.2s-.5-6 0-9c.2-2 1.7-5.8 1.7-5.8s2.2-5.5 3.8-8c1.5-2.4 3.3-4.7 5.5-6.5 2.7-2.5 9-5.7 9-5.7s6-2.6 9-3.3c3.3-.8 10-1 10-1h3.6l4.6 1 6.5 2.8 5 3 5.4 6.3 3.2 4.7z"/><path fill="#f2f2f2" d="M218.7 300.6l-1.7-26.8-5.2-34.3 2.2-10.8-.8-2.8-6-16.7-5-10.8-10-10.8-6.4-6-21.4-14-.7-3 1.8-4 .3-5.4-.6-5.7-1 1.4-.3 6.7-1 3-2.8 2-6.2 4 .3-1.3-5.6-.3-16.6-14.5-16.5-16-2-3.2.2-3 .7-.8-.3-1-1.5 1-1 2.6-2.3 4.6-7.2 8.5v1l-4.2 1.4-5 1.5-3.6.8-3.5 1.2s-26 8.7-26 9c0 .4-25 13-25 13l-6.5 4.4-3.8 3.5-5.4 6.7-4.6 7.7s-5 12.5-8 17.2c-1.6 3-6.2 10-6.2 10v79.7z"/><path fill="#e6e6e6" d="M7.8 275l23.5-17.3-4.2 7-.6 7.8.3 6 2 6.6 3.8 7.4 3 4.6 4.5 2 3 1.3H6.8l-3-6-.7-7.3 2.4-8zM213.2 226.6l-2 .8-3.2 14-1.5-2V227l-2.3-10-1-8.5v-4l-.7-2-2.5 1.8-.8 5 2 7 1.7 6-3.3-.8-3 .3v4l6 5.2 2.2 11.5-.6 5-3-.7-1.4 4-1.2 2 3.4 3-.4 6.2 2.6-6 2-9.8 2.3-1.6.3 2.5-2.3 6.7L203 269l-3.3 10-1 1.8-2 9.6-1-.7L198 270l-2.2-5-2.5-.5-2 4.4-1.7 24.5-3 6.7 11.7-.2v-7.8l2.3-7 2-2.3 1.5 6.4-2 6-1.6 5h4.3l2.3-15.6V280l1.3-3.2 2.6-11.5.2-4.3H210l-4.2 17.6-1.2-.6 2-13 3-12.3 1.8-5-.2-2.6.2-2-1.4-.4.5-4.7 1.8-8.2zM45.6 245l-2.4-14.4 4-2.7 4 8.5-1-9.2 1.2-2.5 2.4.3 1.7 4.8 1-5-3-7 1.3-3 5-1.2L62 217l1.6-9-4.7-8.5v-3.3s3.4-1.2 3.8-.4l3 7 3-12-1-11.2-.7-1.6-4.6-.6 1-1.7 2.5-.6-3.6-2.3 1.2-1.5 3.7 1.7 1.5 6.6.6 15.8-1.3 10.2-1.3 7.8-3.5 6-3 4.2 4.2-3 4.3-7.6 4.8-.8 1 3.6-4.7 5L65 225v2.7l9.7-6.3 4.3-2-.6-12L77 196l-2.7-8.2 4.5.8.2-4-5-.5-.5-4.5-2-3.7-2-8.6L74 165l3.7 3.4-5 2.4 1.6 4.7 2.6 6 4.2-3 4-17 1.6-.3-2.7 17.2-1.8 13.7 1.5 12.4 7-2 2.4-9 3.8-4 2.6 8-4.7 7.4-9 8.2-2 4 6.7 2.5-41 25.2zM153.2 300.5l1.3-11.8-7.4-21.5-9.3-12.3-12.7-9.3 5.5 13.3 9 17.6 6.6 16.2v4.5l3 4zM68.7 300.8l12-9 3.6-9.3 5-11.4-18-5.4-17.7 9.6-5.3 17.8-1.2 7zM77.7 300.5l9.5-8.8L96 281l4.7-4.6 4.5-4.7 10.8-1.4-1.4 7-3.7 12.2-.5 7.2 7.8 1.8h6.3l6-2.4-2.5-14.7-2.6-7.6-1.2-6 5-.3 6.5 15.3 1.6 11 1.4 7zM.6 232.4l20.3-31 11.7-18.3 2-5.4-4.2-1.4-5.7 2.8-4.5 8.8-7.8 11.7L5 213.8 0 223z"/><path fill="#e6e6e6" d="M51 218.7l-11.5-21.5-3.3-3.3-3.5 4.4-5 2.5 1.6 8.5 6 3 2-4.2 4 4.5.4 7.3-3.2 7 4.3 1.3 2-4.3.2-4.7 4.7 2.3 3 .2zM34.2 177.2l6.3-2 6-5 4.4-.2 6.7-3.7L65 165l4.8-2.6 9.4-1 6-.6 6.7-3 3.8-2 5.5-3 3 1.2"/><path fill="#999" d="M337.6 306l-.7 9.5 8.5 14.4 6.3 13.2 3.3 2 6-6 4.2-4 5-4 4.6 6.5 1.5-2.5 1.7-2.6 5 8.6.4 23.5.7 24.2 1 9.5 3.2 30.6 5.3 44.8 2 14 38.6.4v-5l-10.7-61.4-3.8-36.4-2.3-12.6-3.5-19-1.3-4 1.8-5.3-8-14-8-9.5-2.5-6.8-19.7 1.5-26.2-5z" opacity=".8" filter="url(#a)" transform="translate(-148.653 -76.88) scale(.77452)"/><path fill="#04a" d="M159 300.5l-9.7-87 .8-16.4-.2-7 .2-3.5-6-6.2-.7-3.8-5-3.3 5-4 3 2.5 2.5-2 4 1.3h2.7l2-1.5 4.3 4.5-3.3 3 2.5 7 1 2.8.7 2.6 6.3 4 3.2 12.2 3.6 23.5 2.2 23.3 8 48.2z"/><path fill="#e6e6e6" d="M125.6 190l4.2-8.4 6-5 12.2-9.2 5.3-.6 1-.6v-1l-5.4-.3-13.3-11.6-15.2-13.7-6-7-1.2-2.2.6-2.7-.3-1.3-2.2 2.5v2.2l-3 4-6.3 7.6-.4 4 2 5.4 4.8 7.6 5 7 3.7 6 3 6.4z"/><path fill="#e6e6e6" d="M170.3 192.3l.4-5-10.6-12.5-2.5-5-2-.5-12 .8 4.3-2.7 6.8-1 5.2-3.3 3-4.2 1.4-6V151l1-1.5.3 2.4.4 3.7-.5 5-1 2.3-1 4.4 2 5.5 3.7 8.3 2.6 6.4-.2 2.5z"/><path fill="#784421" d="M28.8 260l16-14 5.2-5.6 21-9.8 8.7-4.4 14.5-8.7 6.8-3 5-3.3 11.7-.8 12.5-1.6 9-2 4.5-.7h6.4l8.4-1.4 3.4-.7 5-.5s3.6-.3 5 .6c1.5 1 2.5 2.6 2.8 4.2.4 1.7.3 3.8-.8 5.3-1 1.5-4.8 2.6-4.8 2.6l-12 2-7.3 1.2-1.7.4-2.7.5s-2.4.2-3.2.5l-8.8 3.8-3.7 1.4-.8 1.7.7 1.6 11.8 2 3 .3 3.8-.2 5.3 1.4 6.7 2 9.3 1.7 8 1.5s3 1.3 4.2 2.4c1 .7 2 1.7 2.4 3 .3 1.4.3 3-.2 4.4-.3.8-1 1.4-1.7 2-1 .7-3.5 1.5-3.5 1.5l-4.4-1-6.4-2.4-12-2.2-3.7.4-3.6-.2-2.8-1-5.4-.5-10.7-2-2.4 1 .3 1.3 13.3 3.3 1.8 3.2-.2 4.3-2.3 4.4-2.4 3.4-3 .4-1.7-1.7-1-2.5-1.3-1-9.2-1.3-2 .6.3 1.3 4.4.7 3.6.6 1.8 2 .3 4.7-1.3 2-2.5 2-5 1.6-3.8.6-4 1.2-3.8 1.4-1.8 1.7h-5.2l-7.8.7-14.3.7-7.3-1.3-5.5.2-1.7.4-4 4.2-5.5 6.7-6.2 11.3h-6.6l-9-.3-11.4-17.2-1-13.5 1.4-5.2z"/></g></g></svg>