<?xml version="1.0" standalone="no"?>
<!DOCTYPE svg PUBLIC "-//W3C//DTD SVG 20010904//EN"
 "http://www.w3.org/TR/2001/REC-SVG-20010904/DTD/svg10.dtd">
<svg version="1.0" xmlns="http://www.w3.org/2000/svg"
 width="512.000000pt" height="512.000000pt" viewBox="0 0 512.000000 512.000000"
 preserveAspectRatio="xMidYMid meet">
<metadata>
Created by potrace 1.11, written by Peter Selinger 2001-2013
</metadata>
<g transform="translate(0.000000,512.000000) scale(0.100000,-0.100000)"
fill="#000000" stroke="none">
<path d="M2670 4330 c-87 -12 -138 -28 -249 -82 -139 -66 -209 -135 -270 -263
-56 -117 -75 -193 -68 -272 l5 -62 -43 1 c-24 0 -48 -3 -54 -6 -6 -4 -25 -37
-42 -73 -30 -65 -31 -68 -27 -202 3 -125 5 -139 27 -170 22 -31 27 -33 69 -28
l45 5 -7 -62 c-3 -33 -16 -101 -27 -151 -36 -158 -37 -146 18 -206 65 -72 215
-216 333 -320 230 -204 221 -197 285 -207 53 -9 62 -7 100 16 54 32 90 91 106
172 10 55 19 71 53 105 99 98 229 279 273 380 106 241 104 236 108 389 3 141
18 333 31 393 9 45 -23 228 -51 290 -57 127 -170 246 -286 301 -119 57 -197
70 -329 52z"/>
<path d="M2586 2135 c-14 -10 -23 -11 -36 -3 -14 9 -26 5 -58 -18 -23 -16 -42
-31 -42 -34 0 -3 16 -15 35 -28 25 -16 35 -30 35 -48 0 -17 18 -44 55 -83 l55
-58 -2 -169 -3 -169 -85 -7 c-47 -3 -125 -15 -175 -27 -87 -19 -269 -43 -425
-56 -56 -4 -83 -12 -110 -30 -19 -13 -66 -38 -103 -55 -38 -17 -125 -65 -193
-106 -146 -87 -207 -118 -447 -229 -172 -80 -181 -86 -267 -169 l-89 -86 102
-91 c163 -146 304 -247 487 -349 l95 -53 155 7 c266 10 332 17 360 37 23 16
70 32 228 75 86 24 122 58 122 116 0 63 -19 85 -82 93 -69 10 -101 22 -92 36
9 16 172 2 202 -17 12 -8 22 -23 22 -33 0 -28 31 -50 62 -44 21 4 37 21 63 62
43 71 53 127 31 169 -17 33 -16 32 -166 70 -75 18 -101 42 -63 56 17 7 186
-19 324 -49 37 -8 74 -15 83 -15 8 0 18 -10 20 -23 4 -19 45 -380 78 -692 6
-55 12 -101 13 -102 8 -13 420 59 439 77 4 4 -6 91 -23 192 -43 260 -71 435
-71 452 0 7 11 16 23 20 13 3 36 15 50 27 22 16 27 29 27 63 0 53 -22 84 -84
117 -41 21 -46 28 -46 59 0 19 -11 109 -24 199 -17 110 -22 170 -15 182 21 41
4 124 -32 149 -4 3 -18 48 -31 100 l-24 95 -57 33 c-31 19 -57 39 -57 46 0 6
-16 54 -35 106 -31 86 -33 96 -19 112 15 15 14 21 -7 60 -13 24 -25 45 -26 47
-2 2 -14 -2 -28 -9 -21 -11 -34 -12 -71 -2 -54 15 -55 15 -78 -3z m47 -877 c4
-18 9 -65 13 -104 l6 -72 -81 3 c-109 5 -288 35 -302 51 -7 8 -7 19 -1 29 12
22 205 105 267 115 90 14 92 13 98 -22z"/>
</g>
</svg>
